<svg xmlns="http://www.w3.org/2000/svg" width="500" height="500" style="width:100%;height:100%;transform:translate3d(0,0,0);content-visibility:visible" viewBox="0 0 500 500"><defs><clipPath id="a"><path d="M0 0h500v500H0z"/></clipPath><clipPath id="d"><path d="M0 0h500v500H0z"/></clipPath><clipPath id="c"><path d="M0 0h500v500H0z"/></clipPath><clipPath id="b"><path d="M0 0h500v500H0z"/></clipPath></defs><g clip-path="url(#a)"><g clip-path="url(#b)" opacity="0" style="display:block"><g opacity="1" style="display:block"><path fill="#4AB3FC" d="M363.599 363.599c-62.739 62.739-164.459 62.739-227.198 0-62.739-62.739-62.739-164.459 0-227.198 62.739-62.739 164.459-62.739 227.198 0 62.739 62.739 62.739 164.459 0 227.198z" opacity="1"/><path fill="#EBE6EE" d="M342.838 342.838c-51.273 51.273-134.403 51.273-185.676 0-51.273-51.273-51.273-134.403 0-185.676 51.273-51.273 134.403-51.273 185.676 0 51.273 51.273 51.273 134.403 0 185.676z" opacity="1"/><path fill="#EBE6EE" d="M106.416 97.218c-51.53 40.95-126.72 37.59-174.38-10.07-51.27-51.27-51.27-134.41 0-185.68 11.69-11.69 25.05-20.72 39.3-27.07-3.91 3.1-7.69 6.46-11.3 10.07-51.27 51.27-51.27 134.41 0 185.68 39.59 39.58 98.15 48.6 146.38 27.07z" opacity=".5" style="mix-blend-mode:multiply" transform="translate(225.124 255.692)"/><path fill="none" stroke="#121330" stroke-linecap="round" stroke-linejoin="round" stroke-width="7" d="M250 364.752v-17.204m81.142-16.406-12.166-12.166M364.752 250h-17.204m-16.406-81.142-12.166 12.166M250 135.248v17.204m-81.142 16.406 12.166 12.166M135.248 250h17.204m16.406 81.142 12.166-12.166" opacity="1"/><path fill="#4AB3FC" d="M123.608 126.743c-62.18 39.84-145.801 32.58-200.161-21.78-62.74-62.74-62.74-164.46 0-227.2 12.37-12.37 26.24-22.29 41.04-29.78-9.59 6.14-18.66 13.4-27.04 21.78-62.74 62.74-62.74 164.46 0 227.2 50.37 50.37 125.881 60.3 186.161 29.78z" opacity=".4" style="mix-blend-mode:multiply" transform="translate(212.953 258.637)"/><path fill="none" stroke="#121330" stroke-linecap="round" stroke-linejoin="round" stroke-width="7" d="M363.599 363.599c-62.739 62.739-164.459 62.739-227.198 0-62.739-62.739-62.739-164.459 0-227.198 62.739-62.739 164.459-62.739 227.198 0 62.739 62.739 62.739 164.459 0 227.198z" opacity="1"/><path fill="none" stroke="#121330" stroke-linecap="round" stroke-linejoin="round" stroke-width="7" d="M342.838 342.838c-51.273 51.273-134.403 51.273-185.676 0-51.273-51.273-51.273-134.403 0-185.676 51.273-51.273 134.403-51.273 185.676 0 51.273 51.273 51.273 134.403 0 185.676z" opacity="1"/></g><path fill="none" stroke="#F14B00" stroke-linecap="round" stroke-linejoin="round" stroke-width="7" d="M0 32.883v-65.766" opacity="1" style="display:block" transform="translate(250 214.032)"/><path fill="none" stroke="#121330" stroke-linecap="round" stroke-linejoin="round" stroke-width="7" d="m-17.213 17.213 34.426-34.426" opacity="1" style="display:block" transform="translate(267.213 232.787)"/><g opacity="1" style="display:block"><path fill="none" stroke="#121330" stroke-width=".98" d="M260.87 250c0 6.01-4.86 10.87-10.87 10.87-6.01 0-10.87-4.86-10.87-10.87 0-6.01 4.86-10.87 10.87-10.87 6.01 0 10.87 4.86 10.87 10.87z"/><path fill="#121330" d="M260.874 250c0 6.006-4.868 10.874-10.874 10.874s-10.874-4.868-10.874-10.874 4.868-10.874 10.874-10.874 10.874 4.868 10.874 10.874z" opacity="1"/></g></g><g clip-path="url(#c)" opacity="0" style="display:block"><g opacity="1" style="display:block"><path fill="#4AB3FC" d="M363.599 363.599c-62.739 62.739-164.459 62.739-227.198 0-62.739-62.739-62.739-164.459 0-227.198 62.739-62.739 164.459-62.739 227.198 0 62.739 62.739 62.739 164.459 0 227.198z" opacity="1"/><path fill="#EBE6EE" d="M342.838 342.838c-51.273 51.273-134.403 51.273-185.676 0-51.273-51.273-51.273-134.403 0-185.676 51.273-51.273 134.403-51.273 185.676 0 51.273 51.273 51.273 134.403 0 185.676z" opacity="1"/><path fill="#EBE6EE" d="M106.416 97.218c-51.53 40.95-126.72 37.59-174.38-10.07-51.27-51.27-51.27-134.41 0-185.68 11.69-11.69 25.05-20.72 39.3-27.07-3.91 3.1-7.69 6.46-11.3 10.07-51.27 51.27-51.27 134.41 0 185.68 39.59 39.58 98.15 48.6 146.38 27.07z" opacity=".5" style="mix-blend-mode:multiply" transform="translate(225.124 255.692)"/><path fill="none" stroke="#121330" stroke-linecap="round" stroke-linejoin="round" stroke-width="7" d="M250 364.752v-17.204m81.142-16.406-12.166-12.166M364.752 250h-17.204m-16.406-81.142-12.166 12.166M250 135.248v17.204m-81.142 16.406 12.166 12.166M135.248 250h17.204m16.406 81.142 12.166-12.166" opacity="1"/><path fill="#4AB3FC" d="M123.608 126.743c-62.18 39.84-145.801 32.58-200.161-21.78-62.74-62.74-62.74-164.46 0-227.2 12.37-12.37 26.24-22.29 41.04-29.78-9.59 6.14-18.66 13.4-27.04 21.78-62.74 62.74-62.74 164.46 0 227.2 50.37 50.37 125.881 60.3 186.161 29.78z" opacity=".4" style="mix-blend-mode:multiply" transform="translate(212.953 258.637)"/><path fill="none" stroke="#121330" stroke-linecap="round" stroke-linejoin="round" stroke-width="7" d="M363.599 363.599c-62.739 62.739-164.459 62.739-227.198 0-62.739-62.739-62.739-164.459 0-227.198 62.739-62.739 164.459-62.739 227.198 0 62.739 62.739 62.739 164.459 0 227.198z" opacity="1"/><path fill="none" stroke="#121330" stroke-linecap="round" stroke-linejoin="round" stroke-width="7" d="M342.838 342.838c-51.273 51.273-134.403 51.273-185.676 0-51.273-51.273-51.273-134.403 0-185.676 51.273-51.273 134.403-51.273 185.676 0 51.273 51.273 51.273 134.403 0 185.676z" opacity="1"/></g><path fill="none" stroke="#F14B00" stroke-linecap="round" stroke-linejoin="round" stroke-width="7" d="M0 32.883v-65.766" opacity="1" style="display:block" transform="translate(250 214.032)"/><path fill="none" stroke="#121330" stroke-linecap="round" stroke-linejoin="round" stroke-width="7" d="m-17.213 17.213 34.426-34.426" opacity="1" style="display:block" transform="translate(267.213 232.787)"/><g opacity="1" style="display:block"><path fill="none" stroke="#121330" stroke-width=".98" d="M260.87 250c0 6.01-4.86 10.87-10.87 10.87-6.01 0-10.87-4.86-10.87-10.87 0-6.01 4.86-10.87 10.87-10.87 6.01 0 10.87 4.86 10.87 10.87z"/><path fill="#121330" d="M260.874 250c0 6.006-4.868 10.874-10.874 10.874s-10.874-4.868-10.874-10.874 4.868-10.874 10.874-10.874 10.874 4.868 10.874 10.874z" opacity="1"/></g></g><g clip-path="url(#d)" style="display:block"><g style="display:block"><path fill="#4AB3FC" d="M363.599 363.599c-62.739 62.739-164.459 62.739-227.198 0-62.739-62.739-62.739-164.459 0-227.198 62.739-62.739 164.459-62.739 227.198 0 62.739 62.739 62.739 164.459 0 227.198z"/><path fill="#EBE6EE" d="M342.838 342.838c-51.273 51.273-134.403 51.273-185.676 0-51.273-51.273-51.273-134.403 0-185.676 51.273-51.273 134.403-51.273 185.676 0 51.273 51.273 51.273 134.403 0 185.676z"/><path fill="#EBE6EE" d="M106.416 97.218c-51.53 40.95-126.72 37.59-174.38-10.07-51.27-51.27-51.27-134.41 0-185.68 11.69-11.69 25.05-20.72 39.3-27.07-3.91 3.1-7.69 6.46-11.3 10.07-51.27 51.27-51.27 134.41 0 185.68 39.59 39.58 98.15 48.6 146.38 27.07z" opacity=".5" style="mix-blend-mode:multiply" transform="translate(225.124 255.692)"/><path fill="none" stroke="#121330" stroke-linecap="round" stroke-linejoin="round" stroke-width="7" d="M250 364.752v-17.204m81.142-16.406-12.166-12.166M364.752 250h-17.204m-16.406-81.142-12.166 12.166M250 135.248v17.204m-81.142 16.406 12.166 12.166M135.248 250h17.204m16.406 81.142 12.166-12.166"/><path fill="#4AB3FC" d="M123.608 126.743c-62.18 39.84-145.801 32.58-200.161-21.78-62.74-62.74-62.74-164.46 0-227.2 12.37-12.37 26.24-22.29 41.04-29.78-9.59 6.14-18.66 13.4-27.04 21.78-62.74 62.74-62.74 164.46 0 227.2 50.37 50.37 125.881 60.3 186.161 29.78z" opacity=".4" style="mix-blend-mode:multiply" transform="translate(212.953 258.637)"/><path fill="none" stroke="#121330" stroke-linecap="round" stroke-linejoin="round" stroke-width="7" d="M363.599 363.599c-62.739 62.739-164.459 62.739-227.198 0-62.739-62.739-62.739-164.459 0-227.198 62.739-62.739 164.459-62.739 227.198 0 62.739 62.739 62.739 164.459 0 227.198z"/><path fill="none" stroke="#121330" stroke-linecap="round" stroke-linejoin="round" stroke-width="7" d="M342.838 342.838c-51.273 51.273-134.403 51.273-185.676 0-51.273-51.273-51.273-134.403 0-185.676 51.273-51.273 134.403-51.273 185.676 0 51.273 51.273 51.273 134.403 0 185.676z"/></g><path fill="none" stroke="#F14B00" stroke-linecap="round" stroke-linejoin="round" stroke-width="7" d="M0 32.883v-65.766" style="display:block" transform="translate(250 214.032)"/><g fill="none" style="display:block"><path stroke="#121330" stroke-width="2" d="m250 250 34.426-34.426"/><path stroke="#FFF" stroke-width=".98" d="m250 250 34.426-34.426"/><path stroke="#121330" stroke-linecap="round" stroke-linejoin="round" stroke-width="7" d="m250 250 34.426-34.426"/></g><g style="display:block"><path fill="none" stroke="#121330" stroke-width=".98" d="M260.87 250c0 6.01-4.86 10.87-10.87 10.87-6.01 0-10.87-4.86-10.87-10.87 0-6.01 4.86-10.87 10.87-10.87 6.01 0 10.87 4.86 10.87 10.87z"/><path fill="#121330" d="M260.874 250c0 6.006-4.868 10.874-10.874 10.874s-10.874-4.868-10.874-10.874 4.868-10.874 10.874-10.874 10.874 4.868 10.874 10.874z"/></g></g><g class="com" style="display:none"><path/><path/><path/><path/><path/><path/><path/><path/><path/><path/><path/><path/></g></g></svg>